# Blender v3.1.2 OBJ File: 'box.blend'
# www.blender.org
mtllib box.mtl
o Cube_Cube.001
v -1.000000 -1.000000 1.000000
v -1.000000 1.000000 1.000000
v -1.000000 -1.000000 -1.000000
v -1.000000 1.000000 -1.000000
v 1.000000 -1.000000 1.000000
v 1.000000 1.000000 1.000000
v 1.000000 -1.000000 -1.000000
v 1.000000 1.000000 -1.000000
vt 0.032227 0.724609
vt 0.282227 0.724609
vt 0.282227 0.974609
vt 0.032227 0.974609
vt 0.386719 0.127930
vt 0.636719 0.127930
vt 0.636719 0.377930
vt 0.386719 0.377930
vt 0.636719 0.627930
vt 0.386719 0.627930
vt 0.289062 0.721680
vt 0.539062 0.721680
vt 0.539062 0.971680
vt 0.289062 0.971680
vt 0.136719 0.377930
vt 0.136719 0.627930
vt 0.886719 0.377930
vt 0.886719 0.627930
vn -1.0000 0.0000 0.0000
vn 0.0000 0.0000 -1.0000
vn 1.0000 0.0000 0.0000
vn 0.0000 0.0000 1.0000
vn 0.0000 -1.0000 0.0000
vn 0.0000 1.0000 0.0000
usemtl Material
s off
f 1/1/1 2/2/1 4/3/1 3/4/1
f 3/5/2 4/6/2 8/7/2 7/8/2
f 7/8/3 8/7/3 6/9/3 5/10/3
f 5/11/4 6/12/4 2/13/4 1/14/4
f 3/15/5 7/8/5 5/10/5 1/16/5
f 8/7/6 4/17/6 2/18/6 6/9/6
